<svg width="150" height="150" viewBox="0 0 150 150" fill="none" xmlns="http://www.w3.org/2000/svg">
<path d="M114.818 123.908L104.46 113.55C103.486 112.665 102.07 112.488 101.007 113.196C94.279 117.446 86.0459 120.721 75.334 120.721C50.4575 120.721 29.2107 100.979 29.2107 75.1289C29.2107 54.7674 44.4376 35.4682 65.6844 29.9795C67.1894 29.6253 68.2517 28.4745 68.2517 26.5268V12.7164C68.2517 10.9458 66.8352 9.70645 65.0647 10.0606C33.8141 15.1952 10 41.4882 10 75.1289C10 108.77 34.8765 140.729 75.2454 140.729C88.5247 140.729 100.565 137.276 114.375 128.246C115.791 127.272 116.146 125.147 114.818 123.908Z" fill="#FF6421"/>
<path d="M84.3639 29.8909C95.8726 31.9271 115.172 41.6652 120.483 65.1252C120.926 66.8958 122.165 67.9581 123.936 67.9581H137.215C139.163 67.9581 140.225 66.4532 139.96 64.5055C136.33 41.134 116.677 14.664 85.0721 10.0606C83.3015 9.79497 81.4424 10.7688 81.4424 12.8049V26.5268C81.4424 28.4745 82.5048 29.5368 84.3639 29.8909Z" fill="#FF6421"/>
<path d="M137.215 81.4145H124.29C122.608 81.4145 121.192 82.2112 120.749 84.0703C119.687 89.2935 117.651 94.2511 113.932 99.9169C113.136 101.333 113.224 102.927 114.375 104.078L124.998 114.613C126.149 115.675 128.097 115.675 129.159 114.347C134.382 107.53 138.632 97.7037 139.871 84.8671C139.96 83.0965 138.897 81.4145 137.215 81.4145Z" fill="#FF6421"/>
</svg>
